<?xml version="1.0" encoding="UTF-8" standalone="no"?>
<svg xmlns="http://www.w3.org/2000/svg" height="22.397" width="30.496" version="1.1">
<g transform="translate(-88.154667,-168.73018)">
<rect style="stroke-linejoin:miter;fill-rule:evenodd;stroke:white;stroke-linecap:butt;stroke-width:1px;fill:black;" transform="matrix(0.9523958,-0.3048643,0.3048643,0.9523958,0,0)" height="15" width="15" y="192.73" x="31.53"/>
<rect style="stroke-linejoin:miter;fill-rule:evenodd;stroke:black;stroke-linecap:butt;stroke-width:1px;fill:white;" height="14.8" width="14.8" y="171.71" x="95.676"/>
<rect style="stroke-linejoin:miter;fill-rule:evenodd;stroke:black;stroke-linecap:butt;stroke-width:1px;fill:white;" transform="matrix(0.9523958,0.3048643,-0.3048643,0.9523958,0,0)" height="14.8" width="14.8" y="131.95" x="151.24"/>
<g style="fill:black;" transform="matrix(1.0037342,0.32129786,-0.28927127,0.90368322,0,0)">
<path d="m147.91,146.06,1.4757,0c0-0.20254,0.0181-0.40508,0.0543-0.60763,0.0434-0.20978,0.11212-0.39786,0.20616-0.56424,0.094-0.1736,0.21701-0.31104,0.36893-0.41232,0.15914-0.1085,0.35083-0.16275,0.57508-0.16276,0.33275,0.00001,0.60401,0.10489,0.8138,0.31467,0.21701,0.20255,0.32551,0.48828,0.32552,0.8572-0.00001,0.23148-0.0543,0.43764-0.16276,0.61848-0.10128,0.18085-0.23149,0.34361-0.39063,0.48828-0.15191,0.14468-0.3219,0.27851-0.50998,0.40148-0.18808,0.11574-0.3653,0.23148-0.53168,0.34722-0.32552,0.22425-0.63657,0.44487-0.93315,0.66188-0.28935,0.21702-0.54253,0.45573-0.75955,0.71615-0.21701,0.25318-0.39062,0.54253-0.52083,0.86805-0.12297,0.32552-0.18446,0.70891-0.18446,1.1502h5.5772v-1.3238h-3.5916c0.18807-0.26042,0.40509-0.48828,0.65104-0.68359,0.24594-0.19531,0.49912-0.37616,0.75954-0.54253,0.26041-0.17361,0.51721-0.34722,0.7704-0.52084,0.26041-0.1736,0.49189-0.3653,0.69444-0.57508,0.20254-0.21701,0.3653-0.46296,0.48828-0.73784,0.12296-0.27488,0.18445-0.60402,0.18446-0.98741-0.00001-0.36892-0.0724-0.70167-0.21702-0.99826-0.13744-0.29658-0.32552-0.54614-0.56423-0.74869-0.23872-0.20254-0.51722-0.35807-0.8355-0.46658-0.31105-0.1085-0.64019-0.16275-0.98741-0.16276-0.45573,0.00001-0.86082,0.0796-1.2153,0.23872-0.34722,0.15191-0.63657,0.36892-0.86805,0.65103-0.23148,0.27489-0.40509,0.60041-0.52083,0.97656-0.11574,0.36893-0.16637,0.7704-0.15191,1.2044"/>
</g>
</g>
</svg>
