<?xml version="1.0" encoding="UTF-8" standalone="no"?>
<svg xmlns="http://www.w3.org/2000/svg" height="22.397" width="30.496" version="1.1">
<g transform="translate(-88.154667,-168.73018)">
<rect style="stroke-linejoin:miter;fill-rule:evenodd;stroke:white;stroke-linecap:butt;stroke-width:1px;fill:black;" transform="matrix(0.9523958,-0.3048643,0.3048643,0.9523958,0,0)" height="15" width="15" y="192.73" x="31.53"/>
<rect style="stroke-linejoin:miter;fill-rule:evenodd;stroke:black;stroke-linecap:butt;stroke-width:1px;fill:white;" height="14.8" width="14.8" y="171.71" x="95.676"/>
<rect style="stroke-linejoin:miter;fill-rule:evenodd;stroke:black;stroke-linecap:butt;stroke-width:1px;fill:white;" transform="matrix(0.9523958,0.3048643,-0.3048643,0.9523958,0,0)" height="14.8" width="14.8" y="131.95" x="151.24"/>
<g style="fill:black;" transform="matrix(1.0037342,0.32129786,-0.28927127,0.90368322,0.08229083,-0.01423767)">
<path d="m149.99,146.14,0,1.0851c0.18807,0,0.38338,0.007,0.58593,0.0217,0.20978,0.007,0.40147,0.047,0.57508,0.11936,0.17361,0.0651,0.31467,0.17361,0.42318,0.32551,0.11573,0.15192,0.1736,0.37255,0.17361,0.66189-0.00001,0.36893-0.11936,0.66189-0.35807,0.8789-0.23872,0.20978-0.53169,0.31467-0.8789,0.31467-0.22425,0-0.41956-0.0398-0.58594-0.11935-0.15914-0.0796-0.29297-0.18446-0.40147-0.31467-0.10851-0.13744-0.1917-0.29658-0.24957-0.47743-0.0579-0.18808-0.0904-0.38339-0.0977-0.58593h-1.4648c-0.007,0.44126,0.0543,0.83188,0.18446,1.1719,0.13744,0.33999,0.32914,0.62934,0.57509,0.86805,0.24594,0.23149,0.54253,0.40871,0.88975,0.53169,0.35445,0.12297,0.74507,0.18446,1.1719,0.18446,0.36892,0,0.72337-0.0543,1.0634-0.16276,0.33998-0.10851,0.64018-0.26765,0.9006-0.47743,0.26041-0.20978,0.46657-0.47019,0.61849-0.78125,0.15914-0.31105,0.23871-0.6655,0.23871-1.0634,0-0.43402-0.11936-0.80656-0.35807-1.1176-0.23872-0.31105-0.56785-0.5136-0.98741-0.60764v-0.0217c0.35445-0.10127,0.61849-0.29296,0.7921-0.57508,0.18084-0.28212,0.27126-0.60763,0.27127-0.97656-0.00001-0.33998-0.076-0.64018-0.22787-0.9006-0.15191-0.26041-0.35084-0.48104-0.59678-0.66189-0.23872-0.18084-0.50999-0.31466-0.8138-0.40148-0.30382-0.094-0.60764-0.14105-0.91145-0.14105-0.39063,0-0.74508,0.0651-1.0634,0.19531-0.31829,0.12298-0.59317,0.3002-0.82465,0.53168-0.22425,0.23148-0.40148,0.50998-0.53168,0.8355-0.12298,0.31829-0.1917,0.67274-0.20617,1.0634h1.4648c-0.007-0.39062,0.0868-0.71252,0.28212-0.96571,0.20254-0.26041,0.49912-0.39061,0.88975-0.39062,0.28211,0.00001,0.53168,0.0868,0.74869,0.26041,0.21701,0.17362,0.32552,0.42319,0.32552,0.7487,0,0.21702-0.0543,0.39063-0.16276,0.52083-0.10127,0.13021-0.2351,0.23148-0.40147,0.30382-0.15915,0.0651-0.33276,0.10489-0.52083,0.11935-0.18808,0.0145-0.36531,0.0145-0.53168,0"/>
</g>
</g>
</svg>
