<?xml version="1.0" encoding="UTF-8" standalone="no"?>
<svg xmlns="http://www.w3.org/2000/svg" height="22.397" width="30.496" version="1.1">
<g transform="translate(-88.154667,-168.73018)">
<rect style="stroke-linejoin:miter;fill-rule:evenodd;stroke:white;stroke-linecap:butt;stroke-width:1px;fill:black;" transform="matrix(0.9523958,-0.3048643,0.3048643,0.9523958,0,0)" height="15" width="15" y="192.73" x="31.53"/>
<rect style="stroke-linejoin:miter;fill-rule:evenodd;stroke:black;stroke-linecap:butt;stroke-width:1px;fill:white;" height="14.8" width="14.8" y="171.71" x="95.676"/>
<rect style="stroke-linejoin:miter;fill-rule:evenodd;stroke:black;stroke-linecap:butt;stroke-width:1px;fill:white;" transform="matrix(0.9523958,0.3048643,-0.3048643,0.9523958,0,0)" height="14.8" width="14.8" y="131.95" x="151.24"/>
<g style="fill:black;" transform="matrix(1.0037342,0.32129786,-0.28927127,0.90368322,0,0)">
<path d="m150.9,145,0,2.6367-1.9965,0,1.964-2.6367,0.0326,0m0,3.9062,0,1.7578,1.4648,0,0-1.7578,1.0091,0,0-1.2695-1.0091,0,0-4.5681-1.378,0-3.2986,4.4271,0,1.4106,3.2118,0"/>
</g>
</g>
</svg>
