<?xml version="1.0" encoding="UTF-8" standalone="no"?>
<svg xmlns="http://www.w3.org/2000/svg" height="22.397" width="30.496" version="1.1">
<g transform="translate(-88.154667,-168.73018)">
<rect style="stroke-linejoin:miter;fill-rule:evenodd;stroke:#ffffff;stroke-linecap:butt;stroke-width:1px;fill:#000000;" transform="matrix(0.9523958,-0.3048643,0.3048643,0.9523958,0,0)" height="15" width="15" y="192.73" x="31.53"/>
<rect style="stroke-linejoin:miter;fill-rule:evenodd;stroke:#000000;stroke-linecap:butt;stroke-miterlimit:4;stroke-dasharray:none;stroke-width:1.20000005;fill:#ffffff;" height="14.8" width="14.8" y="171.71" x="95.676"/>
<rect style="stroke-linejoin:miter;fill-rule:evenodd;stroke:#000000;stroke-linecap:butt;stroke-miterlimit:4;stroke-dasharray:none;stroke-width:1.20000005;fill:#ffffff;" transform="matrix(0.9523958,0.3048643,-0.3048643,0.9523958,0,0)" height="14.8" width="14.8" y="131.95" x="151.24"/>
<g style="font-size:10.85063457px;font-family:Sans;fill:#000000;letter-spacing:0px;text-anchor:middle;font-style:normal;word-spacing:0px;font-weight:normal;line-height:125%;text-align:center;" transform="matrix(1.0037342,0.32129786,-0.28927127,0.90368322,0,0)">
<path d="m152.94,144.34,0-1.2695-4.2426,0-0.74869,4.1992,1.3889,0c0.15191-0.20978,0.31466-0.36168,0.48828-0.45573,0.1736-0.10127,0.39785-0.1519,0.67274-0.15191,0.20977,0.00001,0.39423,0.0362,0.55338,0.10851,0.15914,0.0723,0.29658,0.17361,0.41232,0.30382s0.20254,0.28212,0.26042,0.45572c0.0579,0.17362,0.0868,0.35808,0.0868,0.55339,0,0.18808-0.0326,0.37254-0.0977,0.55338-0.0579,0.17361-0.14468,0.32914-0.26042,0.46658-0.10851,0.13021-0.24595,0.23871-0.41232,0.32552-0.15915,0.0796-0.33999,0.11935-0.54253,0.11935-0.34723,0-0.63296-0.10127-0.8572-0.30381-0.22425-0.20978-0.35446-0.48828-0.39063-0.8355h-1.5408c0.007,0.39785,0.0868,0.74869,0.23872,1.0525,0.15914,0.29658,0.36892,0.54615,0.62933,0.74869,0.26042,0.20255,0.557,0.35446,0.88976,0.45573,0.33998,0.094,0.69443,0.14106,1.0634,0.14106,0.38338,0.007,0.74507-0.0543,1.0851-0.18446,0.33998-0.13745,0.63657-0.32914,0.88975-0.57509,0.26041-0.24594,0.46658-0.53529,0.61849-0.86805,0.1519-0.33998,0.22786-0.70529,0.22786-1.0959,0-0.35445-0.0543-0.68721-0.16276-0.99826-0.10127-0.31828-0.25318-0.59317-0.45572-0.82465-0.19532-0.23147-0.43765-0.41594-0.727-0.55338s-0.6221-0.20616-0.99825-0.20616c-0.30382,0-0.57509,0.047-0.8138,0.14105-0.23872,0.0868-0.46296,0.23511-0.67274,0.44488l-0.0217-0.0217,0.30382-1.7252h3.1358"/>
</g>
</g>
</svg>
