<?xml version="1.0" encoding="UTF-8" standalone="no"?>
<svg xmlns="http://www.w3.org/2000/svg" height="22.397" width="30.496" version="1.1">
<g transform="translate(-88.154667,-168.73018)">
<rect style="stroke-linejoin:miter;fill-rule:evenodd;stroke:black;stroke-linecap:butt;stroke-width:1px;fill:black;" transform="matrix(0.9523958,-0.3048643,0.3048643,0.9523958,0,0)" height="15" width="15" y="192.73" x="31.53"/>
<rect style="stroke-linejoin:miter;fill-rule:evenodd;stroke:black;stroke-linecap:butt;stroke-width:1px;fill:white;" height="14.8" width="14.8" y="171.71" x="95.676"/>
<rect style="stroke-linejoin:miter;fill-rule:evenodd;stroke:black;stroke-linecap:butt;strike-width:1px;fill:white;" transform="matrix(0.9523958,0.3048643,-0.3048643,0.9523958,0,0)" height="14.8" width="14.8" y="131.95" x="151.24"/>
<g transform="matrix(0.30318198,0.09704932,-0.09704932,0.30318198,69.580871,-6.304111)">
<path style="fill:black;" d="m312.44,514.1c-1.1082,0.49161-2.2994,0.82371-3.5494,0.97312,1.2759-0.76482,2.2559-1.9759,2.7172-3.4191-1.1942,0.70834-2.5168,1.2225-3.9246,1.4997-1.1272-1.2012-2.7334-1.9515-4.5109-1.9515-3.4129,0-6.1802,2.767-6.1802,6.1799,0,0.48437,0.0547,0.9561,0.1601,1.4084-5.1363-0.2577-9.69-2.7182-12.738-6.4572-0.53198,0.91273-0.83682,1.9743-0.83682,3.1069,0,2.1442,1.0911,4.0357,2.7493,5.144-1.013-0.0321-1.966-0.31011-2.7992-0.77295-0.0007,0.0258-0.0007,0.0517-0.0007,0.0777,0,2.9942,2.1303,5.4919,4.9575,6.06-0.51856,0.14128-1.0646,0.21673-1.6282,0.21673-0.39822,0-0.7853-0.0389-1.1628-0.11085,0.78652,2.4552,3.0688,4.2419,5.7732,4.2916-2.1151,1.6577-4.7798,2.6457-7.6754,2.6457-0.49884,0-0.99074-0.0294-1.4742-0.0865,2.735,1.7536,5.9835,2.7767,9.4736,2.7767,11.367,0,17.584-9.4169,17.584-17.584,0-0.26794-0.006-0.53438-0.0179-0.79961,1.2073-0.87116,2.255-1.9595,3.0836-3.1989z"/>
</g>
</g>
</svg>
